<svg id="visual" viewBox="0 0 960 540" width="960" height="540" xmlns="http://www.w3.org/2000/svg" xmlns:xlink="http://www.w3.org/1999/xlink" version="1.1"><rect x="0" y="0" width="960" height="540" fill="#F8EDE3"></rect><path d="M0 373L137 392L274 397L411 375L549 386L686 400L823 356L960 362L960 541L823 541L686 541L549 541L411 541L274 541L137 541L0 541Z" fill="#a7727d"></path><path d="M0 415L137 415L274 425L411 362L549 385L686 371L823 423L960 355L960 541L823 541L686 541L549 541L411 541L274 541L137 541L0 541Z" fill="#a55b64"></path><path d="M0 411L137 401L274 407L411 447L549 399L686 393L823 402L960 417L960 541L823 541L686 541L549 541L411 541L274 541L137 541L0 541Z" fill="#a04347"></path><path d="M0 435L137 475L274 456L411 470L549 444L686 482L823 454L960 442L960 541L823 541L686 541L549 541L411 541L274 541L137 541L0 541Z" fill="#962c27"></path><path d="M0 475L137 501L274 482L411 476L549 488L686 475L823 492L960 507L960 541L823 541L686 541L549 541L411 541L274 541L137 541L0 541Z" fill="#871400"></path></svg>